<?xml version="1.0" standalone="no"?>
<!DOCTYPE svg PUBLIC "-//W3C//DTD SVG 20010904//EN"
 "http://www.w3.org/TR/2001/REC-SVG-20010904/DTD/svg10.dtd">
<svg version="1.0" xmlns="http://www.w3.org/2000/svg"
 width="512.000000pt" height="512.000000pt" viewBox="0 0 512.000000 512.000000"
 preserveAspectRatio="xMidYMid meet">
<metadata>
Created by potrace 1.11, written by Peter Selinger 2001-2013
</metadata>
<g transform="translate(0.000000,512.000000) scale(0.100000,-0.100000)"
fill="#000000" stroke="none">
<path d="M711 5104 c-107 -28 -146 -59 -392 -304 -252 -251 -276 -284 -304
-404 -14 -61 -14 -180 0 -229 4 -12 21 -51 37 -87 28 -60 85 -119 682 -718
l651 -652 -687 -688 c-377 -378 -689 -697 -693 -710 -17 -59 -12 -65 611 -688
333 -333 616 -609 630 -614 66 -26 38 -51 771 682 l693 693 413 -413 c227
-226 420 -412 430 -412 9 0 25 -4 35 -9 9 -5 148 -60 307 -122 160 -61 304
-117 320 -124 17 -7 46 -18 65 -25 19 -7 44 -16 55 -21 87 -39 647 -252 672
-256 46 -7 91 23 105 69 11 37 3 75 -33 153 -5 11 -49 126 -99 255 -50 129
-94 244 -99 255 -9 21 -38 97 -91 235 -18 47 -39 99 -46 115 -7 17 -42 109
-79 205 -37 96 -73 187 -80 202 -7 15 -16 42 -20 60 -6 26 -93 119 -418 446
l-412 412 690 690 690 690 0 48 0 47 -612 611 c-631 631 -636 636 -695 619
-13 -4 -332 -316 -710 -693 l-688 -687 -652 652 c-655 653 -674 670 -782 710
-56 21 -198 25 -265 7z"/>
</g>
</svg>
